<svg width="24" height="24" viewBox="0 0 24 24" fill="none" xmlns="http://www.w3.org/2000/svg">
<circle cx="12" cy="12" r="12" fill="white"/>
<path d="M16.5 8.99023C14.835 8.82523 13.16 8.74023 11.49 8.74023C10.5 8.74023 9.51 8.79023 8.52 8.89023L7.5 8.99023" stroke="#B78053" stroke-linecap="round" stroke-linejoin="round"/>
<path d="M10.25 8.485L10.36 7.83C10.44 7.355 10.5 7 11.345 7H12.655C13.5 7 13.565 7.375 13.64 7.835L13.75 8.485" stroke="#B78053" stroke-linecap="round" stroke-linejoin="round"/>
<path d="M15.4242 10.5698L15.0992 15.6048C15.0442 16.3898 14.9992 16.9998 13.6042 16.9998H10.3942C8.99922 16.9998 8.95422 16.3898 8.89922 15.6048L8.57422 10.5698" stroke="#B78053" stroke-linecap="round" stroke-linejoin="round"/>
<path d="M11.1641 14.25H12.8291" stroke="#B78053" stroke-linecap="round" stroke-linejoin="round"/>
<path d="M10.75 12.25H13.25" stroke="#B78053" stroke-linecap="round" stroke-linejoin="round"/>
</svg>
